# xmcd
#
# Track frame offsets: 
#        150
#        9350
#        23867
#        36540
#        49560
#        60327
#        74455
#        86042
#        97215
#        111550
#        122807
#        137640
#        150072
#        161615
#        172232
#        185980
#        199187
#        212015
#        222607
#        235357
#
# Disc length: 3277 seconds
#
# Revision: 2
# Processed by: cddbd v1.5.2PL0 Copyright (c) Steve Scherf et al.
# Submitted via: ExactAudioCopyFreeDBPlugin 1.0
#
DISCID=2d0ccb14
DTITLE=Frankie Laine - I Believe
DYEAR=2004
DGENRE=Country
TTITLE0=Rawhide
TTITLE1=Jealousy
TTITLE2=Moonlight Gambler
TTITLE3=Cry of the Wild Goose
TTITLE4=Hummingbird
TTITLE5=Don't Fence Me In
TTITLE6=Strange Lady in Town
TTITLE7=Rose, Rose, I Love You
TTITLE8=There Must Be a Reason
TTITLE9=Answer Me
TTITLE10=Jezebel
TTITLE11=High Noon (Do Not Forsake Me)
TTITLE12=Mule Train
TTITLE13=Sixteen Tons
TTITLE14=Cool Water
TTITLE15=Wheel of Fortune
TTITLE16=Rain, Rain, Rain
TTITLE17=A Woman in Love
TTITLE18=Granada
TTITLE19=I Believe
EXTD=
EXTT0=
EXTT1=
EXTT2=
EXTT3=
EXTT4=
EXTT5=
EXTT6=
EXTT7=
EXTT8=
EXTT9=
EXTT10=
EXTT11=
EXTT12=
EXTT13=
EXTT14=
EXTT15=
EXTT16=
EXTT17=
EXTT18=
EXTT19=
PLAYORDER=
